# xmcd CD database file
#
# Track frame offsets:
#	150
#	12312
#	22537
#	32297
#	44512
#	60147
#	70982
#	82895
#	98685
#	109145
#	120685
#	133855
#	153322
#	161700
#	172860
#	183440
#	192632
#	202462
#
# Disc length: 2870 seconds
#
# Revision: 1
# Processed by: cddbd v1.5.1PL0 Copyright (c) Steve Scherf et al.
# Submitted via: Feurio! 1.68 - http://www.feurio.com
#
DISCID=e70b3412
DTITLE=Various Artist - Country - Heroes - Live
DYEAR=1991
DGENRE=Country
TTITLE0=Faron Young - Wine Me Up
TTITLE1=Faron Young - Going Steady
TTITLE2=Faron Young - Hello Walls
TTITLE3=Faron Young - It's Four In The Morning
TTITLE4=Tom T. Hall - I Like Bear
TTITLE5=Tom T. Hall - Ravishing Ruby
TTITLE6=Tom T. Hall - The Year That Clayton Delaney Died
TTITLE7=Tom T. Hall - (Old Dogs, Children And) Watermelon Wine
TTITLE8=Leroy Van Dyke - Walk On By
TTITLE9=Johnny Russell - Got No Reason Now For Going Home
TTITLE10=Johnny Russell - Crystal Chandeliers
TTITLE11=Jimmy Dean - Bill Bailey
TTITLE12=Jimmy Dean - Big Bad John
TTITLE13=Porter Wagoner - Ole Slew-Foot
TTITLE14=Porter Wagoner - I Thought I Heard You Calling My Name
TTITLE15=Porter Wagoner - Louisiana Saturday Night
TTITLE16=Porter Wagoner - Satisfied Mind
TTITLE17=Porter Wagoner - Y'all Come
EXTD=
EXTT0=
EXTT1=
EXTT2=
EXTT3=
EXTT4=
EXTT5=
EXTT6=
EXTT7=
EXTT8=
EXTT9=
EXTT10=
EXTT11=
EXTT12=
EXTT13=
EXTT14=
EXTT15=
EXTT16=
EXTT17=
PLAYORDER=
